<svg xmlns="http://www.w3.org/2000/svg" viewBox="0 0 512 512">
  <defs>
    <linearGradient id="sky" x1="0" y1="0" x2="0" y2="1"><stop stop-color="#16334a"/><stop offset="1" stop-color="#426f70"/></linearGradient>
    <linearGradient id="road" x1="0" y1="0" x2="1" y2="1"><stop stop-color="#d78b31"/><stop offset="1" stop-color="#a94d2b"/></linearGradient>
  </defs>
  <rect width="512" height="512" rx="112" fill="#f5efdf"/>
  <rect x="24" y="24" width="464" height="464" rx="96" fill="url(#sky)"/>
  <circle cx="397" cy="112" r="43" fill="#e9b755"/>
  <path d="M25 304 128 170l67 82 81-132 103 151 50-71 59 104v184H25z" fill="#d9e0d2"/>
  <path d="m103 304 83-93 55 76 72-114 91 131z" fill="#f7f3e8" opacity=".9"/>
  <path d="M65 488c87-103 145-111 207-83 67 30 118 24 176-51v134z" fill="url(#road)"/>
  <path d="M139 397c34-25 64-31 91-23" fill="none" stroke="#f5efdf" stroke-width="10" stroke-linecap="round" stroke-dasharray="18 18"/>
  <g fill="#152838" transform="translate(238 300)">
    <circle cx="22" cy="64" r="26"/><circle cx="112" cy="64" r="26"/>
    <path d="M22 64h34l18-34h38l22 34h-22l-15-19H80L66 64H48l18-51h24l10 17h-15l-8-10-12 44z"/>
    <circle cx="77" cy="3" r="16"/><path d="M69 18 46 42h20l18-20 19 17 14-8-22-24z"/>
  </g>
</svg>
